<svg xmlns="http://www.w3.org/2000/svg" version="1.1" viewBox="-5.0 -10.0 110.0 135.0">
  <g>
    <path d="m19.309 81.027c-3.5195 0.003906-6.8242-1.6914-8.875-4.5547-2.0469-2.8633-2.582-6.5391-1.4414-9.8672 1.1406-3.332 3.8242-5.9023 7.1992-6.9062 3.3711-1 7.0234-0.3125 9.7969 1.8555l12.688-12.688c0.62891-0.59766 1.6172-0.58203 2.2344 0.03125 0.61328 0.61328 0.625 1.6016 0.027344 2.2344l-13.762 13.758c-0.30469 0.30469-0.71875 0.47656-1.1484 0.46875-0.42969-0.003906-0.84375-0.18359-1.1406-0.49219-0.054688-0.058594-0.10938-0.11328-0.16406-0.16797v-0.003907c-3.0039-3-7.8711-2.9961-10.875 0.007813-3 3.0039-3 7.8711 0.003906 10.875 1.4531 1.4648 3.4375 2.2773 5.5 2.25 0.49609-1.8203 1.4609-3.4844 2.8008-4.8164 0.625-0.625 1.6367-0.62891 2.2617-0.003907 0.62891 0.625 0.62891 1.6406 0.003907 2.2656-1.168 1.1562-1.9258 2.6641-2.168 4.2891-0.10547 0.69531-0.64844 1.2422-1.3438 1.3438-0.53125 0.082031-1.0625 0.12109-1.5977 0.12109z"/>
    <path d="m50 41.406c-0.64844 0-1.2305-0.39062-1.4766-0.98828-0.25-0.59766-0.11328-1.2852 0.34375-1.7422l12.688-12.688c-2.2578-2.8867-2.9062-6.7148-1.7344-10.184 1.1719-3.4727 4.0117-6.1211 7.5547-7.0508 3.543-0.92969 7.3164-0.015625 10.043 2.4336 2.7227 2.4492 4.0352 6.1016 3.4883 9.7227-0.10156 0.69531-0.64844 1.2422-1.3438 1.3477-1.625 0.24219-3.1328 1-4.2891 2.168-0.625 0.62109-1.6406 0.62109-2.2656-0.003906s-0.62109-1.6367 0.003907-2.2617c1.332-1.3398 2.9961-2.3047 4.8164-2.8008 0.027344-2.0625-0.78516-4.0469-2.25-5.5-3.0273-2.8477-7.7656-2.7773-10.707 0.16016-2.9375 2.9375-3.0156 7.6758-0.17188 10.707l0.16797 0.16016c0.3125 0.29688 0.48828 0.70703 0.49609 1.1406 0.003907 0.42969-0.16406 0.84375-0.46875 1.1484l-13.762 13.762c-0.30078 0.30078-0.70703 0.46875-1.1328 0.46875z"/>
    <path d="m74.141 24.891c-0.64844 0-1.2305-0.39062-1.4766-0.98828-0.25-0.59766-0.11328-1.2852 0.34766-1.7422 1.6406-1.6484 3.7734-2.7266 6.0781-3.0664 0.42188-0.074219 0.85547 0.027344 1.207 0.28125 0.34766 0.25 0.57812 0.63281 0.64453 1.0586 0.0625 0.42578-0.046875 0.85938-0.30859 1.1992-0.25781 0.34375-0.64453 0.57031-1.0703 0.625-1.625 0.24219-3.1289 1-4.2891 2.168-0.30078 0.29688-0.70703 0.46484-1.1328 0.46484z"/>
    <path d="m60.195 51.602c-0.64844 0-1.2305-0.39062-1.4805-0.98828-0.24609-0.59766-0.10938-1.2852 0.34766-1.7461l13.762-13.758c0.30469-0.30469 0.71875-0.47656 1.1484-0.46875 0.43359 0.003906 0.84375 0.18359 1.1406 0.49219 0.054688 0.058594 0.10938 0.11328 0.16406 0.16797v0.003907c2.1992 2.1953 5.5078 2.8555 8.3789 1.6641 2.875-1.1914 4.7461-3.9961 4.7461-7.1055s-1.8711-5.9141-4.7461-7.1055c-2.8711-1.1914-6.1797-0.53125-8.3789 1.668-0.625 0.625-1.6406 0.625-2.2656 0s-0.625-1.6406 0-2.2656c1.6406-1.6523 3.7734-2.7266 6.0781-3.0664 3.6211-0.54688 7.2734 0.76562 9.7227 3.4922 2.4453 2.7227 3.3594 6.4961 2.4297 10.039-0.92969 3.543-3.5781 6.3828-7.0469 7.5547-3.4688 1.1719-7.2969 0.51953-10.184-1.7344l-12.688 12.688c-0.29688 0.30078-0.70703 0.46875-1.1289 0.46875z"/>
    <path d="m29.859 91.602c-4.4023 0-8.3711-2.6523-10.059-6.7227-1.6836-4.0664-0.75391-8.75 2.3594-11.863 0.625-0.625 1.6367-0.625 2.2656 0 0.625 0.62109 0.625 1.6367 0 2.2617-2.1992 2.1992-2.8555 5.5078-1.668 8.3789 1.1914 2.875 3.9961 4.7461 7.1055 4.7461s5.9141-1.8711 7.1055-4.7461c1.1914-2.8711 0.53125-6.1797-1.6641-8.3789l-0.16797-0.16016v-0.003907c-0.3125-0.29688-0.49219-0.70703-0.49609-1.1367-0.003906-0.42969 0.16406-0.84766 0.46875-1.1523l13.758-13.762c0.63281-0.59766 1.6211-0.58594 2.2344 0.027344 0.61328 0.61719 0.62891 1.6055 0.03125 2.2344l-12.688 12.688c2.5664 3.2773 3.0352 7.7344 1.207 11.477-1.8242 3.7422-5.6289 6.1172-9.793 6.1133z"/>
    <path d="m80.691 81.027c-0.53516 0-1.0703-0.039063-1.5977-0.12109-0.69531-0.10156-1.2422-0.64844-1.3477-1.3438-0.24219-1.625-1-3.1328-2.168-4.2891-0.31641-0.29688-0.50391-0.71094-0.51172-1.1445-0.007812-0.43359 0.16016-0.85547 0.46875-1.1641 0.30469-0.30859 0.72656-0.47656 1.1602-0.46875 0.4375 0.007812 0.84766 0.19531 1.1445 0.51562 1.3398 1.332 2.3047 2.9961 2.8008 4.8164h0.089844c2.0352 0.003906 3.9844-0.80859 5.4141-2.25 2.8711-3.0234 2.8125-7.7852-0.13672-10.734-2.9453-2.9492-7.707-3.0117-10.73-0.14453-0.054688 0.054687-0.10938 0.11328-0.16406 0.16797-0.29688 0.3125-0.70703 0.49219-1.1406 0.49609-0.42969 0.003907-0.84375-0.16406-1.1484-0.46875l-37.715-37.719c-0.30469-0.30469-0.47656-0.71875-0.46875-1.1484 0.003906-0.43359 0.18359-0.84375 0.49609-1.1406 0.058593-0.054688 0.11328-0.10938 0.16797-0.16406 3-3.0039 2.9961-7.8711-0.007813-10.875-3.0039-3-7.8711-3-10.875 0.003906-1.4648 1.4531-2.2773 3.4375-2.25 5.5 1.8203 0.49609 3.4844 1.4609 4.8164 2.8008 0.625 0.625 0.62891 1.6367 0.003907 2.2617-0.625 0.62891-1.6406 0.62891-2.2656 0.003907-1.1562-1.168-2.6641-1.9258-4.2891-2.168-0.69531-0.10547-1.2422-0.64844-1.3438-1.3438-0.54297-3.625 0.76953-7.2773 3.4961-9.7227 2.7266-2.4453 6.4961-3.3555 10.039-2.4258 3.543 0.92969 6.3789 3.5781 7.5508 7.0469 1.1719 3.4727 0.51953 7.2969-1.7344 10.184l35.566 35.566c2.7734-2.168 6.4258-2.8633 9.8008-1.8594 3.3789 1.0039 6.0586 3.5742 7.2031 6.9062 1.1445 3.332 0.60547 7.0078-1.4453 9.8711-2.0508 2.8672-5.3555 4.5625-8.8789 4.5547z"/>
    <path d="m25.859 24.891c-0.42578 0-0.83203-0.16797-1.1328-0.46484-1.1602-1.168-2.6641-1.9258-4.2891-2.168-0.42578-0.054687-0.8125-0.28125-1.0703-0.625-0.26172-0.33984-0.37109-0.77344-0.30859-1.1992 0.066406-0.42578 0.29688-0.80859 0.64453-1.0586 0.35156-0.25391 0.78516-0.35547 1.207-0.28125 2.3047 0.33984 4.4375 1.418 6.0781 3.0664 0.46094 0.45703 0.59766 1.1445 0.34766 1.7422-0.24609 0.59766-0.82813 0.98828-1.4766 0.98828z"/>
    <path d="m70.141 91.602c-4.1641 0.003907-7.9688-2.3711-9.793-6.1133-1.8281-3.7422-1.3594-8.1992 1.207-11.477l-35.566-35.566c-3.375 2.6367-7.9844 3.0469-11.773 1.0508-3.7891-1.9961-6.0547-6.0273-5.793-10.301 0.26172-4.2773 3.0039-8 7.0117-9.5195 4.0039-1.5156 8.5273-0.54297 11.555 2.4844 0.625 0.625 0.62891 1.6367 0.003907 2.2617s-1.6406 0.625-2.2656 0.003906c-2.1992-2.1992-5.5039-2.8555-8.3789-1.668-2.8711 1.1914-4.7461 3.9961-4.7461 7.1055s1.875 5.9141 4.7461 7.1055c2.875 1.1914 6.1797 0.53125 8.3789-1.6641 0.054688-0.054688 0.10938-0.11328 0.16406-0.16797v-0.003907c0.29688-0.30859 0.70703-0.48828 1.1406-0.49219 0.42969-0.007813 0.84375 0.16406 1.1484 0.46875l37.711 37.715c0.30469 0.30469 0.47656 0.71875 0.46875 1.1484-0.003906 0.43359-0.18359 0.84375-0.49609 1.1406-0.058593 0.054688-0.11328 0.10938-0.16797 0.16406-2.1953 2.1992-2.8555 5.5078-1.6641 8.3789 1.1914 2.875 3.9961 4.7461 7.1055 4.7461s5.9141-1.8711 7.1055-4.7461c1.1914-2.8711 0.53125-6.1797-1.668-8.3789-0.625-0.625-0.625-1.6406 0-2.2656s1.6406-0.625 2.2656 0c1.6523 1.6406 2.7266 3.7734 3.0664 6.0781 0.47656 3.1328-0.44141 6.3242-2.5117 8.7266-2.0664 2.4062-5.082 3.7852-8.2539 3.7852z"/>
  </g>
</svg>