<svg xmlns="http://www.w3.org/2000/svg" viewBox="0 0 96 120" x="0px" y="0px">
  <g data-name="1">
    <path d="M63.42,6.58H32.58a12.51,12.51,0,0,0-12.5,12.5V76.92a12.51,12.51,0,0,0,12.5,12.5H63.42a12.51,12.51,0,0,0,12.5-12.5V19.08A12.51,12.51,0,0,0,63.42,6.58ZM58.73,18.47h3a2.5,2.5,0,1,1,0,5h-3a2.5,2.5,0,1,1,0-5Zm-24.49,0H47.73a2.5,2.5,0,0,1,0,5H34.24a2.5,2.5,0,0,1,0-5ZM63.8,63.65H32.2a2.5,2.5,0,0,1-.12-5A16.15,16.15,0,0,1,45.5,45.23V42.89a2.5,2.5,0,0,1,5,0v2.34A16.15,16.15,0,0,1,63.92,58.66a2.5,2.5,0,0,1-.12,5Zm-26.63-5a11.11,11.11,0,0,1,21.66,0Z" fill='inherit' />
  </g>
</svg>