<svg xmlns="http://www.w3.org/2000/svg" version="1.1" viewBox="-5.0 -10.0 110.0 135.0">
  <g>
    <path d="m43.719 51.531c0.058594-0.44141 0.19922-0.85938 0.41016-1.25l-20.68-15.02c-3.25 4.6211-5.1992 10.219-5.2891 16.27zm-9.0195-3.0508c0 0.58984-0.46875 1.0586-1.0508 1.0586-0.57813 0-1.0586-0.46875-1.0586-1.0586 0-0.57812 0.48047-1.0508 1.0586-1.0508 0.58203 0 1.0508 0.46875 1.0508 1.0508zm-2.1094-4.1211c0.33984 0 0.60938 0.26953 0.60938 0.60938 0 0.32812-0.26953 0.60156-0.60938 0.60156-0.32812 0-0.60156-0.26953-0.60156-0.60156 0-0.33984 0.27344-0.60938 0.60156-0.60938zm-6.6211-2.8711c0.75 0 1.3594 0.60156 1.3594 1.3516s-0.60938 1.3594-1.3594 1.3594-1.3516-0.60938-1.3516-1.3594c0.003906-0.75 0.60156-1.3516 1.3516-1.3516zm-3.2578 4.082c0.37109 0 0.66016 0.30078 0.66016 0.67188 0 0.37109-0.28906 0.66016-0.66016 0.66016-0.37109 0-0.67188-0.28906-0.67188-0.66016 0-0.37109 0.30078-0.67188 0.67188-0.67188z"/>
    <path d="m24 34.512 20.672 15.02c0.30859-0.32031 0.67188-0.57812 1.0703-0.76953l-7.9102-24.309c-5.5625 1.8984-10.363 5.4453-13.832 10.059zm14.711 4.668c0.89062 0 1.6094 0.71875 1.6094 1.6016 0 0.89062-0.71875 1.6094-1.6094 1.6094-0.89063 0-1.6094-0.71875-1.6094-1.6094 0-0.88281 0.71875-1.6016 1.6094-1.6016zm-1.0508-4.6094c0 0.64063-0.51953 1.1602-1.1602 1.1602-0.64844 0-1.1719-0.51953-1.1719-1.1602 0-0.64844 0.51953-1.1719 1.1719-1.1719 0.64062 0 1.1602 0.52344 1.1602 1.1719zm-2.7891-5.0312c0.60938 0 1.1016 0.48828 1.1016 1.1016 0 0.60938-0.48828 1.1016-1.1016 1.1016-0.60938 0-1.1094-0.48828-1.1094-1.1016 0-0.60938 0.5-1.1016 1.1094-1.1016zm-1.6719 6.2695c0.30859 0 0.55859 0.25 0.55859 0.55859 0 0.30859-0.25 0.55859-0.55859 0.55859-0.30078 0-0.55859-0.25-0.55859-0.55859 0-0.30859 0.25781-0.55859 0.55859-0.55859z"/>
    <path d="m23.449 68.73 20.672-15.02c-0.21094-0.39063-0.35156-0.80859-0.39844-1.2617h-25.562c0.089844 6.0508 2.0391 11.66 5.2891 16.281zm8.8711-15.211c0.73047 0 1.3281 0.60156 1.3281 1.3281 0 0.73828-0.60156 1.3281-1.3281 1.3281-0.73828 0-1.3398-0.58984-1.3398-1.3281 0-0.72656 0.59766-1.3281 1.3398-1.3281zm-4.9922 1.332c0.37109 0 0.66016 0.30078 0.66016 0.67188 0 0.37109-0.28906 0.66016-0.66016 0.66016s-0.67188-0.28906-0.67188-0.66016c0.003906-0.375 0.30469-0.67188 0.67188-0.67188zm-0.67969 4.5078c0.37891 0 0.67969 0.30078 0.67969 0.67188 0 0.37891-0.30078 0.67969-0.67969 0.67969-0.37109 0-0.67969-0.30078-0.67969-0.67969 0-0.37109 0.3125-0.67188 0.67969-0.67188z"/>
    <path d="m20.691 70.73 2.0117-1.4609c-3.3711-4.7695-5.3789-10.57-5.4688-16.809h-2.4883c0.09375 6.7891 2.2852 13.09 5.9453 18.27z"/>
    <path d="m17.238 51.531c0.089844-6.25 2.1094-12.039 5.4688-16.82l-2.0117-1.4609c-3.6719 5.1797-5.8516 11.48-5.9492 18.281z"/>
    <path d="m21.238 32.512 2.0117 1.4609c3.5781-4.7617 8.5508-8.4297 14.301-10.398l-0.76953-2.3711c-6.25 2.125-11.652 6.1172-15.543 11.309z"/>
    <path d="m46.609 55.52-7.8984 24.309c2.7109 0.82812 5.5781 1.2812 8.5586 1.2812s5.8516-0.44922 8.5586-1.2812l-7.8984-24.309c-0.21094 0.039063-0.44141 0.058594-0.66016 0.058594-0.23047 0-0.44141-0.019531-0.66016-0.058594zm3.4102 16.5c0 0.82031-0.67188 1.4883-1.5 1.4883-0.82031 0-1.4883-0.67187-1.4883-1.4883 0-0.82812 0.67188-1.5 1.4883-1.5 0.83203 0 1.5 0.67188 1.5 1.5zm-1.5-9.668c0 0.69141-0.55859 1.25-1.25 1.25-0.69141 0-1.25-0.55859-1.25-1.25 0-0.69922 0.55859-1.2617 1.25-1.2617 0.69141 0 1.25 0.55859 1.25 1.2617z"/>
    <path d="m76.379 51.531c-0.089844-6.0391-2.0391-11.648-5.3008-16.27l-20.668 15.02c0.21094 0.39062 0.35156 0.80859 0.41016 1.25zm-7.4492-10.141c0.55078 0 1 0.44922 1 1 0 0.55859-0.44922 1.0117-1 1.0117-0.55859 0-1.0117-0.44922-1.0117-1.0117 0.003906-0.55078 0.45312-1 1.0117-1zm-2.5508 2.7812c0.78125 0 1.4102 0.62891 1.4102 1.3984 0 0.78125-0.62891 1.4102-1.4102 1.4102s-1.4102-0.62891-1.4102-1.4102c0-0.76953 0.63281-1.3984 1.4102-1.3984zm-8.8086 3.1367c0.64844 0 1.1719 0.53125 1.1719 1.1719 0 0.64844-0.51953 1.1719-1.1719 1.1719-0.64062 0-1.1602-0.51953-1.1602-1.1719 0-0.64062 0.51953-1.1719 1.1602-1.1719z"/>
    <path d="m57.762 21.199-0.76953 2.3711c5.75 1.9688 10.711 5.6406 14.301 10.398l2.0117-1.4609c-3.8945-5.1797-9.293-9.168-15.543-11.309z"/>
    <path d="m59.449 16.012-1.4102 4.3086c6.4414 2.1992 12 6.3086 16.012 11.648l3.6797-2.6797c-4.6211-6.2188-10.922-10.801-18.281-13.277zm3.5508 3.5977c-0.28125 0.62891-1.0195 0.92188-1.6484 0.64062-0.64062-0.28125-0.92187-1.0195-0.64062-1.6602 0.28125-0.62891 1.0195-0.91016 1.6602-0.62891 0.62891 0.27734 0.91016 1.0195 0.62891 1.6484zm6.3594 3.9805c-0.39844 0.55859-1.1914 0.67969-1.75 0.26953-0.55859-0.39844-0.67969-1.1914-0.26953-1.75 0.39844-0.55859 1.1914-0.67969 1.75-0.26953 0.55859 0.39844 0.67969 1.1914 0.26953 1.75zm3.6289 5.1094c-0.46094-0.51172-0.42188-1.3008 0.089844-1.7695 0.51953-0.46094 1.3086-0.42188 1.7695 0.10156 0.46875 0.51172 0.42188 1.3008-0.089844 1.7617-0.50781 0.46875-1.3086 0.42578-1.7695-0.09375z"/>
    <path d="m36.781 82.789 0.76953-2.3711c-5.75-1.9688-10.719-5.6406-14.301-10.398l-2.0117 1.4609c3.8906 5.1797 9.293 9.168 15.543 11.309z"/>
    <path d="m56.699 24.449-7.8984 24.32c0.25 0.12109 0.48828 0.26953 0.71094 0.44141 0.03125 0.019531 0.058593 0.039062 0.078125 0.070312 0.019531 0.011719 0.03125 0.019531 0.050781 0.039062 0.078125 0.070313 0.14844 0.14063 0.23047 0.21875l20.672-15.02c-3.4727-4.6094-8.2734-8.1602-13.844-10.07zm-0.82812 16.332c-0.46094 0-0.83984-0.37891-0.83984-0.85156 0-0.46875 0.37891-0.85156 0.83984-0.85156 0.46875 0 0.85156 0.37891 0.85156 0.85156-0.003906 0.46875-0.38281 0.85156-0.85156 0.85156zm3.8008-6.2109c-0.71875 0-1.3086-0.58984-1.3086-1.3203 0-0.71875 0.58984-1.3086 1.3086-1.3086 0.73047 0 1.3203 0.58984 1.3203 1.3086-0.003907 0.73047-0.59375 1.3203-1.3203 1.3203zm2.4688 4.3711c-0.82812 0-1.5117-0.67969-1.5117-1.5117 0-0.82813 0.67969-1.5 1.5117-1.5 0.82812 0 1.5 0.67187 1.5 1.5 0 0.83203-0.67188 1.5117-1.5 1.5117z"/>
    <path d="m49.43 53.559c0.32812-0.46094 0.51172-0.98828 0.51172-1.5586s-0.17969-1.1094-0.51172-1.5703c-0.28906-0.39844-0.67969-0.71094-1.1289-0.89063-0.058593-0.03125-0.12891-0.050781-0.19922-0.070312-0.26953-0.089844-0.53906-0.12891-0.82031-0.12891s-0.55078 0.039062-0.82031 0.12891c-0.53125 0.17188-1 0.51172-1.3281 0.96094-0.32812 0.46094-0.51172 1-0.51172 1.5586 0 0.57031 0.17969 1.1094 0.51172 1.5703 0.32813 0.44922 0.80078 0.80078 1.3281 0.96875 0.53906 0.17188 1.1289 0.17188 1.6406 0 0.52734-0.16797 1-0.51562 1.3281-0.96875z"/>
    <path d="m70.539 69.469-20.668-15.02c-0.078125 0.089843-0.17188 0.17969-0.26172 0.25 0 0.011719-0.011719 0.019531-0.011719 0.019531-0.14062 0.10938-0.28125 0.21875-0.42969 0.30859-0.011719 0.011718-0.019531 0.011718-0.03125 0.019531-0.058594 0.039063-0.12891 0.078125-0.19922 0.10938-0.011719 0.011719-0.03125 0.019531-0.039062 0.03125-0.03125 0.011719-0.058594 0.03125-0.089844 0.039062l7.8906 24.309c5.5703-1.9062 10.371-5.457 13.84-10.066zm-13.551-3.5781c-0.98047 0-1.7695-0.78906-1.7695-1.7695 0-0.98047 0.78906-1.7695 1.7695-1.7695s1.7695 0.78906 1.7695 1.7695c0.003907 0.98047-0.78906 1.7695-1.7695 1.7695zm5.1523 4.1211c-0.94141 0-1.6992-0.76172-1.6992-1.6992 0-0.92969 0.76172-1.6914 1.6992-1.6914 0.92969 0 1.6914 0.76172 1.6914 1.6914-0.003906 0.9375-0.76172 1.6992-1.6914 1.6992z"/>
    <path d="m77.738 74.699-3.6914-2.6797c-4.0117 5.3398-9.5703 9.4492-16.012 11.641l1.4102 4.3203c7.2656-2.4609 13.734-7.1602 18.293-13.281zm-4.7383 0.3125c0.46094-0.51172 1.2617-0.55078 1.7695-0.089844 0.51172 0.46094 0.55859 1.25 0.089844 1.7695-0.46094 0.51172-1.25 0.55078-1.7695 0.089844-0.51172-0.46094-0.55078-1.25-0.089844-1.7695zm-5.3711 4.8398c0.55859-0.39844 1.3398-0.28125 1.75 0.28125 0.39844 0.55859 0.28125 1.3398-0.28125 1.75-0.55859 0.41016-1.3398 0.28125-1.75-0.28125-0.40625-0.5625-0.27734-1.3398 0.28125-1.75zm-6.2695 3.6172c0.62891-0.28125 1.3711 0.011719 1.6602 0.64062 0.28125 0.62891-0.011719 1.3711-0.64062 1.6484-0.62891 0.28125-1.3711 0-1.6484-0.62891-0.28125-0.62891 0-1.3789 0.62891-1.6602z"/>
    <path d="m58.57 88.27-1.3984-4.3203c-3.1289 0.96875-6.4609 1.4883-9.8984 1.4883-3.4492 0-6.7695-0.51953-9.8984-1.4883l-1.3984 4.3086c7.4141 2.3203 15.203 2.3203 22.594 0.011719zm-4.0898-2.5586c0.67969-0.14063 1.3398 0.28906 1.4883 0.96875 0.14062 0.67187-0.28906 1.3398-0.96875 1.4805-0.67188 0.14844-1.3398-0.28906-1.4805-0.96094-0.14844-0.67969 0.28906-1.3477 0.96094-1.4883zm-13.422 1.4883c-0.14844 0.67969-0.80859 1.1094-1.4883 0.96094-0.67969-0.14062-1.1094-0.80078-0.96094-1.4805 0.14062-0.67969 0.80859-1.1094 1.4805-0.96875 0.67969 0.14844 1.1094 0.80859 0.96875 1.4883zm4.9727 0.51953c0-0.69141 0.57031-1.25 1.2617-1.25 0.69141 0 1.25 0.55859 1.25 1.25s-0.55859 1.25-1.25 1.25c-0.69141 0-1.2617-0.55859-1.2617-1.25z"/>
    <path d="m45.73 55.23c-0.39844-0.19141-0.76172-0.44922-1.0586-0.76953l-20.684 15.008c3.4805 4.6094 8.2812 8.1602 13.84 10.07zm-11.719 8.8906c0.37891 0 0.69141 0.30859 0.69141 0.69141 0 0.37891-0.30859 0.69141-0.69141 0.69141-0.37891 0-0.69141-0.30859-0.69141-0.69141s0.30859-0.69141 0.69141-0.69141zm0.42969 5.7305c-0.85156 0-1.5312-0.69141-1.5312-1.5391 0-0.83984 0.67969-1.5312 1.5312-1.5312 0.83984 0 1.5312 0.69141 1.5312 1.5312-0.003906 0.84766-0.69141 1.5391-1.5312 1.5391zm1.0469-5.75c0-1.1406 0.92188-2.0586 2.0586-2.0586 0.37109 0 0.71875 0.10156 1.0312 0.28125 0.46094 0.26172 0.80859 0.71094 0.96094 1.2383 0.039063 0.17188 0.070313 0.35156 0.070313 0.53906 0 1.1406-0.92188 2.0586-2.0586 2.0586-1.1406 0-2.0625-0.92188-2.0625-2.0586z"/>
    <path d="m35.09 87.98 1.4102-4.3203c-6.4414-2.1914-12.012-6.3008-16.012-11.641l-3.6797 2.6719c4.6211 6.2188 10.922 10.797 18.281 13.289zm-3.5312-3.8711c0.28125-0.62891 1.0195-0.91016 1.6484-0.62891 0.62891 0.28125 0.92188 1.0195 0.64062 1.6484-0.28125 0.64062-1.0312 0.92188-1.6602 0.64062s-0.90625-1.0195-0.62891-1.6602zm-6.3594-3.9688c0.39844-0.55859 1.1914-0.67969 1.75-0.28125 0.55859 0.41016 0.67969 1.1914 0.26953 1.75-0.39844 0.55859-1.1914 0.69141-1.75 0.28125s-0.67969-1.1914-0.26953-1.75zm-3.6289-5.1211c0.46094 0.51953 0.42188 1.3086-0.089843 1.7695-0.51953 0.46875-1.3086 0.42969-1.7695-0.089843-0.46875-0.51172-0.42969-1.3086 0.089843-1.7695 0.50781-0.46094 1.3086-0.41797 1.7695 0.089843z"/>
    <path d="m78.27 30.039-3.6797 2.6719c3.7695 5.3398 6.0312 11.828 6.1211 18.82h4.5586c-0.097656-7.6328-2.5703-15.23-7-21.492zm0.69141 4.9727c-0.60156 0.35156-1.3711 0.14062-1.7188-0.46094-0.33984-0.60156-0.14063-1.3594 0.46094-1.7109 0.60156-0.33984 1.3711-0.14062 1.7109 0.46094 0.34766 0.59766 0.13672 1.3711-0.45312 1.7109zm1.2305 6.1484c-0.21875-0.66016 0.14062-1.3594 0.80078-1.5781 0.66016-0.21094 1.3711 0.14844 1.5781 0.80859 0.21094 0.66016-0.14844 1.3594-0.80078 1.5781-0.66016 0.21094-1.3711-0.14844-1.5781-0.80859zm2.8789 8.1914c-0.69141 0.078126-1.3008-0.42187-1.3789-1.1094-0.070312-0.69141 0.42969-1.3086 1.1211-1.3789 0.69141-0.070312 1.3008 0.42969 1.3789 1.1211 0.070313 0.67578-0.42969 1.2969-1.1211 1.3672z"/>
    <path d="m19.949 71.27c-3.7812-5.3281-6.0312-11.82-6.1289-18.82h-4.5508c0.089844 7.6406 2.5703 15.23 6.9883 21.5zm-9.5781-15.52c-0.070313-0.69141 0.42969-1.3008 1.1211-1.3789 0.69141-0.070313 1.3008 0.42969 1.3711 1.1211 0.078125 0.69141-0.42188 1.3008-1.1094 1.3789-0.69531 0.070312-1.3047-0.42969-1.3828-1.1211zm3.1992 8.3906c-0.66016 0.21875-1.3711-0.14062-1.5781-0.80078-0.21875-0.66016 0.14062-1.3711 0.80078-1.5781 0.66016-0.21094 1.3711 0.14844 1.5781 0.80078 0.20703 0.65625-0.15234 1.3672-0.80078 1.5781zm1.5703 6.2891c-0.33984-0.60156-0.14062-1.3711 0.46094-1.7188 0.60156-0.33984 1.3711-0.14063 1.7109 0.46094 0.35156 0.60156 0.14844 1.3711-0.44922 1.7109-0.60156 0.34766-1.375 0.13672-1.7227-0.45312z"/>
    <path d="m19.949 32.711-3.6914-2.6797c-2.2109 3.1211-3.9297 6.5508-5.1211 10.219-1.1992 3.6719-1.8203 7.4609-1.8711 11.281h4.5508c0.10547-7 2.3555-13.48 6.1328-18.82zm-4.8086 0.60937c0.33984-0.60156 1.1094-0.80859 1.7109-0.46094 0.60156 0.33984 0.80078 1.1094 0.46094 1.7109-0.35156 0.60156-1.1211 0.80078-1.7109 0.46094-0.60156-0.35156-0.8125-1.1211-0.46094-1.7109zm-3.6523 16.051c-0.69141-0.070313-1.1914-0.69141-1.1211-1.3789 0.070312-0.69141 0.69141-1.1797 1.3789-1.1094 0.69141 0.070313 1.1914 0.69141 1.1094 1.3711-0.066407 0.6875-0.68359 1.1875-1.3672 1.1172zm1.3008-7.3906c-0.66016-0.21094-1.0195-0.92188-0.80859-1.5781 0.21875-0.64844 0.92188-1.0117 1.5781-0.80078 0.66016 0.21094 1.0195 0.92188 0.80859 1.5781-0.21875 0.66016-0.91797 1.0195-1.5781 0.80078z"/>
    <path d="m81.84 53.371h-18.719c0.011718 0.050781 0.011718 0.10156 0.011718 0.14844 0 1.9219-0.73828 3.6602-1.9609 4.9609l15.379 11.16c3.25-4.6211 5.1992-10.219 5.2891-16.27zm-3.0781 3.4375c0.17188 0 0.30078 0.12891 0.30078 0.28906 0 0.17188-0.12891 0.30078-0.30078 0.30078-0.16016 0-0.28906-0.12891-0.28906-0.30078-0.003906-0.15625 0.12891-0.28906 0.28906-0.28906zm-13.07 1.0898c-0.80859 0-1.4609-0.66016-1.4609-1.4609 0-0.80859 0.64844-1.4688 1.4609-1.4688 0.80859 0 1.4609 0.66016 1.4609 1.4688-0.003906 0.80078-0.65234 1.4609-1.4609 1.4609zm6.1484 1.75c-1.3984 0-2.5391-1.1406-2.5391-2.5508 0-1.3984 1.1406-2.5391 2.5391-2.5391 1.4102 0 2.5508 1.1406 2.5508 2.5391 0 1.4141-1.1406 2.5508-2.5508 2.5508z"/>
    <path d="m80.051 72.191 3.6914 2.6797c2.2109-3.1094 3.9297-6.5508 5.1211-10.219 1.1992-3.6719 1.8203-7.4609 1.8711-11.281h-4.5586c-0.097656 7-2.3477 13.48-6.125 18.82zm4.8281-0.86328c-0.33984 0.60156-1.1094 0.80078-1.7109 0.46094-0.60156-0.35156-0.80078-1.1094-0.46094-1.7109 0.35156-0.60156 1.1211-0.80859 1.7109-0.46094 0.60156 0.34375 0.8125 1.1133 0.46094 1.7109zm3.6523-16.047c0.69141 0.070312 1.1914 0.67969 1.1211 1.3711-0.070313 0.69141-0.69141 1.1914-1.3789 1.1211-0.69141-0.070313-1.1914-0.69141-1.1094-1.3789 0.066407-0.69531 0.6875-1.1953 1.3672-1.1133zm-1.3008 7.3789c0.66016 0.21875 1.0195 0.92188 0.80859 1.5781-0.21875 0.66016-0.92187 1.0195-1.5781 0.80859-0.66016-0.21875-1.0195-0.92188-0.80859-1.5781 0.21875-0.66016 0.91797-1.0195 1.5781-0.80859z"/>
    <path d="m85.25 53.371h-2.4883c-0.089844 6.25-2.1094 12.039-5.4688 16.809l2.0117 1.4609c3.6641-5.1797 5.8555-11.469 5.9453-18.27z"/>
    <path d="m56.879 83.07-0.76953-2.3711c-2.8008 0.85938-5.7695 1.3281-8.8516 1.3281-3.0781 0-6.0391-0.46875-8.8398-1.3281l-0.76953 2.3711c3.0391 0.94141 6.2695 1.4492 9.6094 1.4492 3.3516 0 6.582-0.50781 9.6211-1.4492z"/>
    <path d="m73.301 71.469-2.0117-1.4609c-3.5781 4.7617-8.5508 8.4297-14.301 10.398l0.76953 2.3711c6.2539-2.1289 11.652-6.1172 15.543-11.309z"/>
    <path d="m71.828 34.719c3.3711 4.7695 5.3789 10.559 5.4688 16.809h2.4883c-0.089844-6.7891-2.2812-13.09-5.9492-18.281z"/>
    <path d="m16.801 29.289 3.6914 2.6797c4-5.3398 9.5703-9.4492 16-11.648l-1.4023-4.3203c-7.2617 2.4688-13.73 7.1719-18.289 13.289zm15.379-11.328c0.62891-0.28125 1.3711 0.011718 1.6484 0.64062 0.28125 0.62891 0 1.3711-0.62891 1.6484-0.64062 0.28906-1.3789 0-1.6602-0.62891-0.27734-0.63281 0.011719-1.3711 0.64063-1.6602zm-6.7188 3.8906c0.55859-0.41016 1.3398-0.28906 1.75 0.26953 0.41016 0.55859 0.28125 1.3516-0.28125 1.75-0.55859 0.41016-1.3398 0.28125-1.75-0.26953-0.39844-0.5625-0.28125-1.3516 0.28125-1.75zm-4 5.0898c0.51953 0.46875 0.55859 1.2617 0.10156 1.7695-0.46875 0.51953-1.2617 0.55859-1.7695 0.10156-0.51953-0.46875-0.55859-1.2617-0.089844-1.7695 0.45703-0.52344 1.2461-0.5625 1.7578-0.10156z"/>
    <path d="m56.898 16.93c-3.0391-0.94141-6.2695-1.4492-9.6211-1.4492-3.3398 0-6.5703 0.51172-9.6094 1.4492l0.76953 2.3711c2.8008-0.85938 5.7695-1.3281 8.8398-1.3281 3.0781 0 6.0508 0.46875 8.8516 1.3281z"/>
    <path d="m48.512 42.762 7.3398-22.578c-2.7109-0.83984-5.5898-1.2891-8.5586-1.2891-2.9805 0-5.8516 0.44922-8.5586 1.2891l7.0391 21.672c0.82812 0.019531 1.5 0.69922 1.5 1.5391 0 0.10938-0.011719 0.21875-0.039063 0.32812 0.078125-0.011718 0.14844-0.019531 0.23047-0.019531 0.10156 0 0.19922 0.011719 0.28906 0.03125-0.019531-0.050781-0.019531-0.10156-0.019531-0.14844-0.003906-0.44531 0.33594-0.80469 0.77734-0.82422zm0.30859-17.98c0.16016 0 0.28125 0.12891 0.28125 0.28125 0 0.16016-0.12109 0.28125-0.28125 0.28125-0.14844 0-0.28125-0.12109-0.28125-0.28125 0-0.15234 0.13281-0.28125 0.28125-0.28125zm-3.0703 7.6094c-0.37891 0-0.69141-0.30859-0.69141-0.69922 0-0.37891 0.30859-0.69141 0.69141-0.69141 0.39062 0 0.69922 0.30859 0.69922 0.69141 0 0.38672-0.30859 0.69922-0.69922 0.69922zm0.26953-6.6914c-0.69141 0-1.25-0.55859-1.25-1.25 0-0.69922 0.55859-1.2617 1.25-1.2617 0.69141 0 1.25 0.55859 1.25 1.2617 0 0.69141-0.55859 1.25-1.25 1.25z"/>
    <path d="m47.27 10c-3.7891 0-7.5898 0.57812-11.281 1.7383l1.3984 4.3086c3.1289-0.96875 6.4492-1.4883 9.8984-1.4883 3.4414 0 6.7695 0.51953 9.8984 1.4883l1.3984-4.3086c-3.7031-1.1602-7.5039-1.7383-11.312-1.7383zm-7.1797 4.0312c-0.67188 0.14844-1.3398-0.28906-1.4805-0.96094-0.14844-0.67969 0.28906-1.3398 0.96094-1.4883 0.67969-0.14062 1.3516 0.28906 1.4883 0.96875 0.14062 0.66797-0.28906 1.3398-0.96875 1.4805zm7.1992-0.75c-0.69141 0-1.25-0.57031-1.25-1.2617 0-0.69141 0.55859-1.25 1.25-1.25 0.69141 0 1.25 0.55859 1.25 1.25 0 0.69141-0.55859 1.2617-1.25 1.2617zm8.6797-0.22266c-0.14062 0.67969-0.80859 1.1094-1.4883 0.96875-0.67188-0.14062-1.1016-0.80859-0.96094-1.4883 0.14062-0.67187 0.80859-1.1094 1.4883-0.96094 0.67188 0.14062 1.1016 0.8125 0.96094 1.4805z"/>
  </g>
</svg>