<svg xmlns="http://www.w3.org/2000/svg" xmlns:xlink="http://www.w3.org/1999/xlink" xmlns:serif="http://www.serif.com/" viewBox="0 0 64 80" version="1.1" xml:space="preserve" style="" x="0px" y="0px" fill-rule="evenodd" clip-rule="evenodd" stroke-linejoin="round" stroke-miterlimit="2">
  <g>
    <path d="M3.29,32.128C3.2,31.499 3.131,30.863 3.083,30.222C3.082,30.218 3.082,30.215 3.082,30.211C3.028,29.387 3.319,28.577 3.884,27.974C4.449,27.371 5.239,27.029 6.064,27.029C6.548,27.028 7.11,27.028 7.741,27.027C9.305,22.996 13.177,20.112 17.732,20.003C17.632,19.598 17.509,19.196 17.398,18.772C17.021,17.342 16.73,15.714 17.379,13.26C17.415,13.122 17.453,12.99 17.492,12.862C17.197,12.688 16.999,12.367 16.999,12C16.999,11.448 17.447,11 17.999,11L18.34,11C18.833,10.28 19.374,9.936 19.852,9.783C21.259,9.33 22.559,10.443 22.689,10.558C23.08,10.131 23.485,9.901 23.852,9.783C25.335,9.305 26.699,10.568 26.699,10.568C26.826,10.692 26.913,10.841 26.959,11L26.999,11C27.264,11 27.519,10.895 27.706,10.707C27.894,10.52 27.999,10.265 27.999,10L27.999,9L17.999,9C17.447,9 16.999,8.552 16.999,8C16.999,7.448 17.447,7 17.999,7L27.999,7L27.999,6C27.999,5.735 27.894,5.48 27.706,5.293C27.519,5.105 27.264,5 26.999,5L17.999,5C17.447,5 16.999,4.552 16.999,4C16.999,3.448 17.447,3 17.999,3L26.999,3C27.795,3 28.558,3.316 29.12,3.879C29.683,4.441 29.999,5.204 29.999,6L29.999,7L51.999,7C52.551,7 52.999,7.448 52.999,8C52.999,8.552 52.551,9 51.999,9L29.999,9L29.999,10C29.999,10.796 29.683,11.559 29.12,12.121C28.558,12.684 27.795,13 26.999,13L23.552,13C23.468,13.227 23.388,13.483 23.313,13.771C22.685,16.151 23.145,17.588 23.513,18.926C23.589,19.204 23.662,19.479 23.725,19.756C25.742,17.454 28.702,16 32,16C35.566,16 38.738,17.7 40.748,20.334C42.309,19.484 44.099,19 46,19C51.038,19 55.289,22.394 56.59,27.018L57.935,27.018C58.764,27.018 59.557,27.361 60.124,27.966C60.691,28.571 60.983,29.384 60.929,30.212C60.929,30.216 60.929,30.22 60.928,30.223C60.079,41.38 52.912,50.785 43,54.856L43,58C43,58.796 42.684,59.559 42.121,60.121C41.559,60.684 40.796,61 40,61L24,61C23.204,61 22.441,60.684 21.879,60.121C21.316,59.559 21,58.796 21,58L21,54.856C11.667,51.022 4.769,42.459 3.294,32.156C3.292,32.147 3.291,32.138 3.29,32.128ZM41.655,53.238C49.408,50.265 55.448,43.817 57.865,35.804C57.604,35.929 57.31,36 57,36L55,36C53.895,36 53,35.105 53,34L53,33L51,33L51,34C51,35.105 50.105,36 49,36L47,36C45.895,36 45,35.105 45,34L45,33L43,33L43,34C43,35.105 42.105,36 41,36L39,36C37.895,36 37,35.105 37,34L37,33L35,33L35,34C35,35.105 34.105,36 33,36L31,36C29.895,36 29,35.105 29,34L29,33L27,33L27,34C27,35.105 26.105,36 25,36L23,36C21.895,36 21,35.105 21,34L21,33L19,33L19,34C19,35.105 18.105,36 17,36L15,36C13.895,36 13,35.105 13,34L13,33L11,33L11,34C11,35.105 10.105,36 9,36L7,36C6.693,36 6.402,35.931 6.142,35.807C8.555,43.819 14.594,50.266 22.347,53.239C22.354,53.241 22.36,53.244 22.367,53.246C25.359,54.391 28.607,55.018 32,55.018C35.392,55.018 38.639,54.391 41.631,53.247L41.655,53.238ZM18.816,22.037C18.547,22.012 18.275,22 18,22C14.459,22 11.393,24.049 9.924,27.026C10.645,27.025 11.419,27.025 12.239,27.024C13.503,25.197 15.613,24 18,24C19.798,24 21.439,24.679 22.679,25.795C23.085,26.16 23.447,26.571 23.758,27.021C24.522,27.021 25.294,27.02 26.073,27.02C25.88,26.63 25.658,26.254 25.414,25.898C24.677,24.833 23.717,23.932 22.603,23.266C22.536,23.226 22.468,23.187 22.4,23.148C22.39,23.143 22.38,23.137 22.37,23.132C21.307,22.54 20.112,22.157 18.841,22.039C18.832,22.038 18.824,22.037 18.816,22.037ZM39.083,21.449C37.434,19.35 34.874,18 32,18C28.842,18 26.062,19.63 24.455,22.094C25.003,22.493 25.513,22.94 25.979,23.431C27.199,21.377 29.44,20 32,20C34.312,20 36.365,21.124 37.639,22.854C38.077,22.343 38.56,21.873 39.083,21.449ZM54.494,27.018C53.262,23.514 49.922,21 46,21C44.158,21 42.445,21.554 41.018,22.505C41.011,22.51 41.004,22.515 40.997,22.519C39.948,23.223 39.054,24.142 38.38,25.212C38.379,25.212 38.379,25.213 38.379,25.214C38.024,25.776 37.73,26.381 37.506,27.019L39.666,27.019C40.047,26.211 40.577,25.488 41.222,24.886C42.473,23.716 44.154,23 46,23C48.797,23 51.213,24.644 52.334,27.018L54.494,27.018ZM41.987,27.018L50.013,27.018C49.101,25.794 47.643,25 46,25C44.681,25 43.481,25.512 42.588,26.347C42.368,26.552 42.167,26.777 41.987,27.018ZM19.552,13C19.468,13.227 19.388,13.483 19.313,13.771C18.785,15.771 19.025,17.097 19.332,18.263C19.503,18.912 19.687,19.52 19.806,20.148C20.524,20.267 21.218,20.455 21.882,20.706C21.78,20.024 21.558,19.389 21.377,18.692C21.011,17.282 20.743,15.669 21.379,13.26C21.402,13.171 21.426,13.085 21.451,13L19.552,13ZM35,27.019L35.41,27.019C35.647,26.176 35.982,25.375 36.401,24.627C35.555,23.063 33.901,22 32,22C29.879,22 28.065,23.323 27.339,25.188C27.699,25.765 28.007,26.378 28.257,27.02L29,27.02L29,27C29,25.344 30.344,24 32,24C33.656,24 35,25.344 35,27L35,27.019ZM31,27.019L33,27.019L33,27C33,26.448 32.551,26 32,26C31.448,26 31,26.448 31,27L31,27.019ZM14.971,27.023C16.846,27.022 18.886,27.022 21.027,27.021C20.186,26.381 19.137,26 18,26C16.862,26 15.812,26.381 14.971,27.023Z"/>
  </g>
</svg>